<mxfile host="app.diagrams.net" modified="2024-06-03T02:37:24.368Z" agent="Mozilla/5.0 (Windows NT 10.0; Win64; x64; rv:126.0) Gecko/20100101 Firefox/126.0" version="24.4.13" etag="cDH8ww2t5Dw44TGXsO5f" type="github">
  <diagram name="Page-1" id="AhS1kaOXyp7aXhXoX4AC">
    <mxGraphModel>
      <root>
        <mxCell id="0" />
        <mxCell id="1" parent="0" />
      </root>
    </mxGraphModel>
  </diagram>
</mxfile>
